<mxfile host="Electron" agent="Mozilla/5.0 (Macintosh; Intel Mac OS X 10_15_7) AppleWebKit/537.36 (KHTML, like Gecko) draw.io/28.0.6 Chrome/138.0.7204.100 Electron/37.2.3 Safari/537.36" version="28.0.6">
  <diagram name="Page-1" id="eC9WSQIqjyZF19qM0AOT">
    <mxGraphModel dx="976" dy="751" grid="1" gridSize="10" guides="1" tooltips="1" connect="1" arrows="1" fold="1" page="1" pageScale="1" pageWidth="1654" pageHeight="1169" math="1" shadow="0">
      <root>
        <mxCell id="0" />
        <mxCell id="1" parent="0" />
        <mxCell id="etUIE4KHWM87uPZEjmo3-9" value="" style="html=1;verticalLabelPosition=bottom;align=center;labelBackgroundColor=#ffffff;verticalAlign=top;strokeWidth=2;strokeColor=#FF0000;shadow=0;dashed=0;shape=mxgraph.ios7.icons.wallet;" parent="1" vertex="1">
          <mxGeometry x="340" y="260" width="30" height="20" as="geometry" />
        </mxCell>
        <mxCell id="etUIE4KHWM87uPZEjmo3-10" value="Wash Trading Bot Buys \(a\)&lt;span style=&quot;background-color: transparent; color: light-dark(rgb(0, 0, 0), rgb(255, 255, 255));&quot;&gt;&amp;nbsp;Meme&amp;nbsp;&lt;/span&gt;" style="text;html=1;align=center;verticalAlign=middle;whiteSpace=wrap;rounded=0;" parent="1" vertex="1">
          <mxGeometry x="380" y="260" width="180" height="20" as="geometry" />
        </mxCell>
        <mxCell id="etUIE4KHWM87uPZEjmo3-11" value="" style="html=1;verticalLabelPosition=bottom;align=center;labelBackgroundColor=#ffffff;verticalAlign=top;strokeWidth=2;strokeColor=#FF0000;shadow=0;dashed=0;shape=mxgraph.ios7.icons.wallet;" parent="1" vertex="1">
          <mxGeometry x="340" y="300" width="30" height="20" as="geometry" />
        </mxCell>
        <mxCell id="etUIE4KHWM87uPZEjmo3-12" value="Wash Trading Bot Sells \(a\)&lt;span style=&quot;background-color: transparent; color: light-dark(rgb(0, 0, 0), rgb(255, 255, 255));&quot;&gt;&amp;nbsp;Meme&amp;nbsp;&lt;/span&gt;" style="text;html=1;align=center;verticalAlign=middle;whiteSpace=wrap;rounded=0;" parent="1" vertex="1">
          <mxGeometry x="380" y="300" width="180" height="20" as="geometry" />
        </mxCell>
        <mxCell id="etUIE4KHWM87uPZEjmo3-13" value="" style="html=1;verticalLabelPosition=bottom;align=center;labelBackgroundColor=#ffffff;verticalAlign=top;strokeWidth=2;strokeColor=#FF0000;shadow=0;dashed=0;shape=mxgraph.ios7.icons.wallet;" parent="1" vertex="1">
          <mxGeometry x="340" y="360" width="30" height="20" as="geometry" />
        </mxCell>
        <mxCell id="etUIE4KHWM87uPZEjmo3-14" value="Wash Trading Bot Buys \(z\)&lt;span style=&quot;background-color: transparent; color: light-dark(rgb(0, 0, 0), rgb(255, 255, 255));&quot;&gt;&amp;nbsp;Meme&amp;nbsp;&lt;/span&gt;" style="text;html=1;align=center;verticalAlign=middle;whiteSpace=wrap;rounded=0;" parent="1" vertex="1">
          <mxGeometry x="380" y="360" width="180" height="20" as="geometry" />
        </mxCell>
        <mxCell id="etUIE4KHWM87uPZEjmo3-15" value="" style="html=1;verticalLabelPosition=bottom;align=center;labelBackgroundColor=#ffffff;verticalAlign=top;strokeWidth=2;strokeColor=#FF0000;shadow=0;dashed=0;shape=mxgraph.ios7.icons.wallet;" parent="1" vertex="1">
          <mxGeometry x="340" y="400" width="30" height="20" as="geometry" />
        </mxCell>
        <mxCell id="etUIE4KHWM87uPZEjmo3-16" value="Wash Trading Bot Sells \(z\)&lt;span style=&quot;background-color: transparent; color: light-dark(rgb(0, 0, 0), rgb(255, 255, 255));&quot;&gt;&amp;nbsp;Meme&amp;nbsp;&lt;/span&gt;" style="text;html=1;align=center;verticalAlign=middle;whiteSpace=wrap;rounded=0;" parent="1" vertex="1">
          <mxGeometry x="380" y="400" width="180" height="20" as="geometry" />
        </mxCell>
        <mxCell id="etUIE4KHWM87uPZEjmo3-17" value="" style="endArrow=none;dashed=1;html=1;dashPattern=1 3;strokeWidth=2;rounded=0;" parent="1" edge="1">
          <mxGeometry width="50" height="50" relative="1" as="geometry">
            <mxPoint x="460" y="350" as="sourcePoint" />
            <mxPoint x="460" y="330" as="targetPoint" />
          </mxGeometry>
        </mxCell>
      </root>
    </mxGraphModel>
  </diagram>
</mxfile>
